<?xml version="1.0" encoding="utf-8"?>
<!-- Generator: Adobe Illustrator 24.2.1, SVG Export Plug-In . SVG Version: 6.00 Build 0)  -->
<svg version="1.1" id="Layer_1" xmlns="http://www.w3.org/2000/svg" xmlns:xlink="http://www.w3.org/1999/xlink" x="0px" y="0px"
	 viewBox="0 0 1399 901.3" style="enable-background:new 0 0 1399 901.3;" xml:space="preserve">
<style type="text/css">
	.st0{fill:#ADADAD;}
</style>
<path class="st0" d="M1306,411.3H987.1l-35.4,35.4V801l35.4,35.4h248l141.7-141.7V482.1L1306,411.3z M1228.1,560.1v73.1l-54.4,54.4
	h-73.1V560.1H1228.1z"/>
<path class="st0" d="M1227.9,246.5L1227.9,246.5v-56.7l-92.1-92.1l0,0H987.1l-35.4,35.4v56.8v148.7l35.3,35.3l0.2,0.2h113.4h73.1
	l0.2-0.2h8.1l46-46v-8.1l0,0l0.2-0.2v-73.1L1227.9,246.5L1227.9,246.5z M1131.2,246.5v30.7h-30.7h-52.1v-47.4l0,0v-35.5h47.5
	l0.2,0.2l35.2,35.2L1131.2,246.5L1131.2,246.5z"/>
<path class="st0" d="M768.3,24.1h-458L26.9,307.5v425.2l141.7,141.7h637.8l70.9-70.9V133l0,0L768.3,24.1z M678.8,676h-428
	l-25.5-25.5V389.7l167.2-167.2h286.3V676z"/>
</svg>
